<?xml version="1.0" standalone="no"?>
<!DOCTYPE svg PUBLIC "-//W3C//DTD SVG 20010904//EN"
 "http://www.w3.org/TR/2001/REC-SVG-20010904/DTD/svg10.dtd">
<svg version="1.0" xmlns="http://www.w3.org/2000/svg"
 width="512.000000pt" height="512.000000pt" viewBox="0 0 512.000000 512.000000"
 preserveAspectRatio="xMidYMid meet">
<metadata>
Created by potrace 1.14, written by Peter Selinger 2001-2017
</metadata>
<g transform="translate(0.000000,512.000000) scale(0.100000,-0.100000)"
fill="#000000" stroke="none">
<path d="M1239 4776 c-2 -2 -30 -7 -63 -11 -324 -37 -654 -232 -872 -515 -145
-188 -227 -386 -278 -673 -21 -122 -29 -447 -12 -572 74 -574 361 -1100 866
-1591 97 -94 108 -104 194 -177 27 -23 54 -47 60 -52 63 -59 510 -375 531
-375 4 0 19 -8 33 -19 24 -16 99 -59 267 -151 28 -15 145 -76 260 -135 116
-59 230 -119 255 -133 63 -34 102 -31 190 15 41 22 147 77 235 123 409 211
510 269 740 423 101 68 318 228 335 247 3 3 37 32 75 64 95 80 274 254 365
355 41 47 80 89 85 95 67 71 262 356 332 486 139 256 245 582 270 834 9 88 9
368 0 458 -39 393 -189 712 -448 952 -342 316 -796 427 -1250 303 -229 -62
-491 -234 -654 -427 -45 -53 -148 -210 -169 -258 -10 -23 -22 -42 -26 -42 -4
0 -21 29 -39 64 -71 144 -228 331 -371 441 -154 119 -355 209 -560 251 -65 14
-341 29 -351 20z m267 -178 c5 -3 32 -9 59 -12 127 -17 342 -112 468 -207 198
-149 339 -346 421 -588 19 -58 41 -111 49 -118 7 -8 29 -16 48 -19 54 -9 74
16 115 136 88 260 241 465 461 616 404 276 920 267 1318 -25 174 -127 330
-336 408 -546 23 -62 33 -94 53 -185 27 -117 41 -270 39 -425 -2 -93 -5 -181
-8 -195 -3 -14 -8 -47 -12 -75 -9 -76 -50 -239 -85 -344 -85 -253 -230 -510
-428 -757 -111 -140 -306 -343 -427 -445 -22 -19 -49 -42 -60 -53 -44 -40
-236 -186 -340 -258 -208 -143 -427 -267 -907 -513 l-118 -60 -132 68 c-387
199 -514 267 -668 360 -681 412 -1194 960 -1433 1532 -61 145 -119 356 -133
477 -3 29 -8 60 -11 68 -9 27 -11 333 -2 405 38 307 89 461 217 655 176 266
487 464 795 507 23 3 43 7 45 8 6 6 258 -1 268 -7z"/>
<path d="M1219 4425 c-393 -63 -718 -352 -818 -728 -26 -97 -26 -110 2 -142
51 -59 139 -27 152 58 10 63 61 183 110 262 153 244 435 398 711 389 58 -2 86
-4 151 -15 51 -8 103 32 103 79 0 16 -9 41 -20 55 -19 24 -31 29 -110 43 -65
11 -204 11 -281 -1z"/>
<path d="M390 3317 c-74 -38 -55 -143 29 -154 34 -5 43 -2 65 22 37 40 35 86
-5 119 -34 29 -52 32 -89 13z"/>
<path d="M1486 3139 c-30 -24 -41 -64 -25 -100 8 -22 36 -41 117 -82 l105 -55
-104 -53 c-76 -40 -108 -61 -117 -82 -26 -53 12 -117 68 -117 39 0 395 175
415 204 24 33 19 79 -12 107 -36 32 -353 189 -392 194 -19 2 -39 -3 -55 -16z"/>
<path d="M3384 3068 c-98 -49 -189 -99 -201 -110 -28 -26 -30 -77 -5 -107 25
-30 373 -201 409 -201 43 0 74 28 78 72 5 53 -15 73 -128 129 l-101 51 105 54
c106 54 129 77 129 124 0 29 -41 68 -76 73 -24 4 -70 -15 -210 -85z"/>
<path d="M2160 2532 c-27 -27 -28 -31 -25 -119 2 -78 6 -98 31 -143 73 -133
249 -176 367 -89 25 18 30 19 45 6 87 -76 241 -66 331 21 54 52 74 107 75 208
1 77 -2 95 -18 113 -27 29 -78 37 -110 16 -31 -20 -39 -43 -42 -115 -3 -77 -2
-74 -24 -98 -29 -31 -89 -30 -119 2 -19 20 -23 37 -25 95 -4 103 -41 145 -111
127 -39 -10 -57 -48 -61 -128 -2 -59 -7 -75 -27 -95 -33 -33 -81 -34 -114 -1
-21 21 -25 36 -28 96 -4 82 -16 109 -51 122 -41 16 -64 12 -94 -18z"/>
<path d="M1674 2465 c-32 -14 -133 -116 -135 -137 -5 -61 30 -108 81 -108 51
0 170 118 170 169 0 59 -61 99 -116 76z"/>
<path d="M3378 2462 c-36 -19 -54 -56 -45 -93 9 -34 114 -137 148 -144 52 -12
98 28 99 83 0 27 -11 45 -56 92 -68 72 -99 85 -146 62z"/>
<path d="M3724 2465 c-33 -13 -45 -32 -51 -78 -3 -23 7 -39 57 -92 37 -37 74
-66 90 -70 66 -14 124 57 94 115 -17 35 -104 117 -134 128 -18 7 -35 6 -56 -3z"/>
<path d="M1259 2402 c-62 -62 -68 -71 -64 -102 6 -44 45 -80 87 -80 45 0 168
122 168 167 0 45 -40 83 -86 83 -33 0 -46 -8 -105 -68z"/>
</g>
</svg>
